<svg width="20" height="21" viewBox="0 0 20 21" fill="none" xmlns="http://www.w3.org/2000/svg">
<path d="M14.541 19.1554C13.5993 19.1554 12.6077 18.9304 11.5827 18.4971C10.5827 18.0721 9.57435 17.4888 8.59102 16.7804C7.61602 16.0638 6.67435 15.2638 5.78268 14.3888C4.89935 13.4971 4.09935 12.5554 3.39102 11.5888C2.67435 10.5888 2.09935 9.58877 1.69102 8.6221C1.25768 7.58877 1.04102 6.58877 1.04102 5.6471C1.04102 4.9971 1.15768 4.38044 1.38268 3.80544C1.61602 3.21377 1.99102 2.66377 2.49935 2.18877C3.14102 1.55544 3.87435 1.23877 4.65768 1.23877C4.98268 1.23877 5.31602 1.31377 5.59935 1.4471C5.92435 1.5971 6.19935 1.8221 6.39935 2.1221L8.33268 4.8471C8.50768 5.08877 8.64102 5.3221 8.73268 5.55544C8.84102 5.80544 8.89935 6.05544 8.89935 6.2971C8.89935 6.61377 8.80768 6.9221 8.63268 7.21377C8.50768 7.43877 8.31602 7.68044 8.07435 7.9221L7.50768 8.51377C7.51602 8.53877 7.52435 8.55544 7.53268 8.5721C7.63268 8.7471 7.83268 9.0471 8.21602 9.4971C8.62435 9.96377 9.00768 10.3888 9.39102 10.7804C9.88268 11.2638 10.291 11.6471 10.6743 11.9638C11.1494 12.3638 11.4577 12.5638 11.641 12.6554L11.6243 12.6971L12.2327 12.0971C12.491 11.8388 12.741 11.6471 12.9827 11.5221C13.441 11.2388 14.0244 11.1888 14.6077 11.4304C14.8244 11.5221 15.0577 11.6471 15.3077 11.8221L18.0744 13.7888C18.3827 13.9971 18.6077 14.2638 18.741 14.5804C18.866 14.8971 18.9243 15.1888 18.9243 15.4804C18.9243 15.8804 18.8327 16.2804 18.6577 16.6554C18.4827 17.0304 18.266 17.3554 17.991 17.6554C17.516 18.1804 16.9993 18.5554 16.3994 18.7971C15.8244 19.0304 15.1994 19.1554 14.541 19.1554ZM4.65768 2.48877C4.19935 2.48877 3.77435 2.68877 3.36602 3.08877C2.98268 3.4471 2.71602 3.83877 2.54935 4.26377C2.37435 4.6971 2.29102 5.15544 2.29102 5.6471C2.29102 6.4221 2.47435 7.26377 2.84102 8.13044C3.21602 9.01377 3.74102 9.93044 4.40768 10.8471C5.07435 11.7638 5.83268 12.6554 6.66602 13.4971C7.49935 14.3221 8.39935 15.0888 9.32435 15.7638C10.2243 16.4221 11.1493 16.9554 12.066 17.3388C13.491 17.9471 14.8244 18.0888 15.9243 17.6304C16.3493 17.4554 16.7243 17.1888 17.066 16.8054C17.2577 16.5971 17.4077 16.3721 17.5327 16.1054C17.6327 15.8971 17.6827 15.6804 17.6827 15.4638C17.6827 15.3304 17.6577 15.1971 17.591 15.0471C17.566 14.9971 17.516 14.9054 17.3577 14.7971L14.591 12.8304C14.4243 12.7138 14.2743 12.6304 14.1327 12.5721C13.9493 12.4971 13.8743 12.4221 13.591 12.5971C13.4243 12.6804 13.2743 12.8054 13.1077 12.9721L12.4743 13.5971C12.1494 13.9138 11.6494 13.9888 11.266 13.8471L11.041 13.7471C10.6993 13.5638 10.2993 13.2804 9.85768 12.9054C9.45768 12.5638 9.02435 12.1638 8.49935 11.6471C8.09102 11.2304 7.68268 10.7888 7.25768 10.2971C6.86602 9.83877 6.58268 9.4471 6.40768 9.1221L6.30768 8.8721C6.25768 8.68044 6.24102 8.5721 6.24102 8.45544C6.24102 8.15544 6.34935 7.88877 6.55768 7.68044L7.18268 7.03044C7.34935 6.86377 7.47435 6.70544 7.55768 6.56377C7.62435 6.45544 7.64935 6.36377 7.64935 6.28044C7.64935 6.21377 7.62435 6.11377 7.58268 6.01377C7.52435 5.88044 7.43268 5.73044 7.31602 5.5721L5.38268 2.83877C5.29935 2.7221 5.19935 2.63877 5.07435 2.58044C4.94102 2.5221 4.79935 2.48877 4.65768 2.48877ZM11.6243 12.7054L11.491 13.2721L11.716 12.6888C11.6743 12.6804 11.641 12.6888 11.6243 12.7054Z" fill="#239AC4"/>
</svg>
