<svg width="20" height="21" viewBox="0 0 20 21" fill="none" xmlns="http://www.w3.org/2000/svg">
<g id="vuesax/outline/sms">
<g id="vuesax/outline/sms_2">
<g id="sms">
<path id="Vector" d="M14.166 17.9054H5.83268C2.79102 17.9054 1.04102 16.1554 1.04102 13.1138V7.28044C1.04102 4.23877 2.79102 2.48877 5.83268 2.48877H14.166C17.2077 2.48877 18.9577 4.23877 18.9577 7.28044V13.1138C18.9577 16.1554 17.2077 17.9054 14.166 17.9054ZM5.83268 3.73877C3.44935 3.73877 2.29102 4.8971 2.29102 7.28044V13.1138C2.29102 15.4971 3.44935 16.6554 5.83268 16.6554H14.166C16.5493 16.6554 17.7077 15.4971 17.7077 13.1138V7.28044C17.7077 4.8971 16.5493 3.73877 14.166 3.73877H5.83268Z" fill="#239AC4"/>
<path id="Vector_2" d="M9.999 10.9217C9.299 10.9217 8.59067 10.7051 8.049 10.2634L5.44067 8.18009C5.174 7.96342 5.124 7.57175 5.34067 7.30508C5.55734 7.03842 5.94901 6.98842 6.21567 7.20509L8.824 9.28842C9.45733 9.79676 10.5323 9.79676 11.1657 9.28842L13.774 7.20509C14.0407 6.98842 14.4407 7.03008 14.649 7.30508C14.8657 7.57175 14.824 7.97175 14.549 8.18009L11.9407 10.2634C11.4073 10.7051 10.699 10.9217 9.999 10.9217Z" fill="#239AC4"/>
</g>
</g>
</g>
</svg>
