<svg width="29" height="16" viewBox="0 0 29 16" fill="none" xmlns="http://www.w3.org/2000/svg">
<path d="M1.66736 7C1.11507 7 0.667358 7.44772 0.667358 8C0.667358 8.55228 1.11507 9 1.66736 9L1.66736 7ZM28.3745 8.7071C28.765 8.31658 28.765 7.68342 28.3745 7.29289L22.0105 0.92893C21.62 0.538406 20.9868 0.538406 20.5963 0.928931C20.2058 1.31945 20.2058 1.95262 20.5963 2.34314L26.2531 8L20.5963 13.6569C20.2058 14.0474 20.2058 14.6805 20.5963 15.0711C20.9868 15.4616 21.62 15.4616 22.0105 15.0711L28.3745 8.7071ZM1.66736 9L27.6674 9L27.6674 7L1.66736 7L1.66736 9Z" fill="white"/>
</svg>
