<svg width="36" height="36" viewBox="0 0 36 36" fill="none" xmlns="http://www.w3.org/2000/svg">
<g id="SVG">
<path id="Vector" d="M16.429 1.60758C17.1213 0.205027 19.1214 0.205026 19.8136 1.60758L23.5143 9.10462C23.7889 9.66107 24.3196 10.0469 24.9336 10.1367L33.2123 11.3467C34.7596 11.5729 35.3763 13.4749 34.2561 14.5661L28.2687 20.3978C27.8235 20.8313 27.6204 21.4563 27.7254 22.0688L29.1381 30.3052C29.4025 31.847 27.7841 33.0227 26.3995 32.2945L18.9998 28.4031C18.4499 28.1139 17.7928 28.1139 17.2429 28.4031L9.84312 32.2945C8.45858 33.0227 6.84017 31.847 7.10461 30.3052L8.51725 22.0688C8.62229 21.4563 8.4191 20.8313 7.97394 20.3978L1.98658 14.5661C0.866308 13.4749 1.48303 11.5729 3.03042 11.3467L11.3091 10.1367C11.9231 10.0469 12.4538 9.66107 12.7284 9.10462L16.429 1.60758Z" fill="#15141A"/>
</g>
</svg>
