<svg width="32" height="33" viewBox="0 0 32 33" fill="none" xmlns="http://www.w3.org/2000/svg">
<g id="SVG">
<path id="Vector" d="M14.3842 1.91585C15.0172 0.633519 16.8458 0.633518 17.4787 1.91585L20.8622 8.77029C21.1133 9.27904 21.5984 9.63184 22.1599 9.71389L29.7289 10.8202C31.1436 11.027 31.7074 12.766 30.6832 13.7637L25.2091 19.0955C24.802 19.4919 24.6163 20.0632 24.7123 20.6232L26.0039 28.1537C26.2457 29.5633 24.766 30.6382 23.5001 29.9725L16.7346 26.4146C16.2318 26.1502 15.6311 26.1502 15.1283 26.4146L8.36281 29.9725C7.09695 30.6382 5.61726 29.5633 5.85903 28.1537L7.15059 20.6232C7.24663 20.0632 7.06086 19.4919 6.65386 19.0955L1.17969 13.7637C0.155446 12.766 0.719308 11.027 2.13406 10.8202L9.7031 9.71389C10.2645 9.63184 10.7497 9.27904 11.0008 8.77029L14.3842 1.91585Z" fill="#239AC4" stroke="#239AC4" stroke-width="0.941176"/>
</g>
</svg>
