<svg width="84" height="28" viewBox="0 0 84 28" fill="none" xmlns="http://www.w3.org/2000/svg">
<g id="Group 1000003452">
<path id="Vector" d="M49.966 24.3197V26.505H45.8887V1.02051H49.8246V12.7085C49.9469 12.6044 50.072 12.5381 50.1446 12.4287C51.2898 10.7135 52.7644 9.78175 54.7577 9.79963C56.5743 9.8154 58.1827 10.3065 59.473 11.7609C60.5456 12.9703 61.0986 14.4836 61.3097 16.12C61.5733 18.1549 61.5446 20.2004 60.942 22.1733C60.3756 24.0294 59.409 25.5953 57.7777 26.4818C56.5562 27.1454 55.2391 27.2874 53.8599 27.0928C52.3509 26.8794 51.2649 26.0412 50.3891 24.7529C50.3012 24.6236 50.1723 24.5279 49.9669 24.3197H49.966ZM53.6345 22.9641C55.2076 22.9641 56.4368 22.0607 56.8809 20.2792C57.0901 19.439 57.1359 18.5777 57.0576 17.6764C56.8618 15.4417 55.8293 14.0251 53.8933 13.7328C52.6469 13.5445 51.4435 13.8548 50.6718 15.021C49.476 16.8309 49.369 18.849 50.1637 20.886C50.7549 22.4015 51.8953 23.0209 53.6345 22.9641Z" fill="#239AC4"/>
<path id="Vector_2" d="M37.8289 12.7321V10.3418H41.8231V26.5129H37.74V24.4685C37.5691 24.6651 37.4554 24.7734 37.3656 24.9028C36.3198 26.4003 34.9387 27.1344 33.2262 27.1733C32.0945 27.1996 30.9932 27.1291 29.9646 26.5223C27.9121 25.3119 26.8901 23.3274 26.5205 20.8929C26.3629 19.857 26.2607 18.7896 26.2961 17.7432C26.3753 15.4401 26.8672 13.2611 28.4488 11.5922C29.34 10.652 30.4202 10.103 31.6637 9.90848C33.0476 9.69079 34.3542 9.84854 35.613 10.5416C36.4363 10.9948 37.0285 11.6942 37.5357 12.5081C37.592 12.5996 37.6541 12.6869 37.7133 12.7763C37.7515 12.7616 37.7897 12.7469 37.8279 12.7321H37.8289ZM34.2635 22.9794C36.2396 23.0183 37.4029 21.7332 37.7085 20.121C37.8804 19.2113 37.8833 18.2354 37.8069 17.3047C37.7343 16.4308 37.4401 15.5863 36.8709 14.909C35.9855 13.8563 34.8279 13.564 33.6197 13.7333C32.2912 13.9194 31.3094 14.7471 30.8442 16.1899C30.5281 17.1701 30.4488 18.1586 30.5587 19.2134C30.8013 21.5449 32.1604 22.9825 34.2635 22.9783V22.9794Z" fill="#239AC4"/>
<path id="Vector_3" d="M66.5251 21.7439C67.0447 23.9755 69.5528 24.2268 70.8441 23.354C71.5279 22.8912 71.6234 22.0289 71.0647 21.4063C70.5365 20.8174 69.8766 20.5124 69.1927 20.2653C67.8365 19.7763 66.5223 19.1947 65.3227 18.3313C64.2272 17.5436 63.6264 16.3973 63.6388 14.985C63.656 13.0542 64.5051 11.5945 66.059 10.6775C66.9683 10.1411 67.9387 9.88346 68.9855 9.78145C70.0848 9.67418 71.1296 9.79407 72.1659 10.119C73.6072 10.5712 74.6969 11.5177 75.3665 13.072C74.3493 13.6347 73.3292 14.1984 72.2748 14.781C72.206 14.6653 72.1316 14.5622 72.0771 14.4465C71.5251 13.2803 70.3255 12.7271 69.1354 13.03C68.506 13.1898 67.9769 13.4023 67.7123 14.1363C67.5633 14.5496 67.697 14.8304 67.9091 15.107C68.548 15.9399 69.4439 16.2827 70.3331 16.6571C71.4353 17.1219 72.5661 17.5415 73.6005 18.1546C75.5766 19.3262 75.9233 21.583 75.3168 23.5517C74.7409 25.4225 73.3722 26.3164 71.7514 26.8349C70.6683 27.1809 69.5451 27.2577 68.4344 27.1514C66.8355 26.999 65.3102 26.5352 64.1316 25.2322C63.7993 24.8652 63.5748 24.3741 63.3332 23.9187C63.2835 23.8261 63.3399 23.5538 63.4172 23.5085C64.4325 22.9133 65.4592 22.3433 66.5242 21.7439H66.5251Z" fill="#239AC4"/>
<path id="Vector_4" d="M22.7145 26.5221H18.5703V1.0166H22.7145V26.5221Z" fill="#239AC4"/>
<path id="Vector_5" d="M0.40625 26.5053V10.3721H4.56952V26.5053H0.40625Z" fill="#239AC4"/>
<path id="Vector_6" d="M4.97991 3.68066C5.20149 5.052 3.74306 6.49065 2.51575 6.48224C1.15761 6.47277 -0.0391337 5.15402 0.000980383 3.67961C0.0382292 2.31248 0.943664 0.882237 2.61126 0.952697C3.67906 0.997918 5.16329 2.15262 4.97991 3.68171V3.68066Z" fill="#239AC4"/>
<ellipse id="Ellipse 151" cx="81.2917" cy="24.1217" rx="2.57876" ry="2.83944" fill="#15141A"/>
</g>
</svg>
