<svg width="116" height="70" viewBox="0 0 116 70" fill="none" xmlns="http://www.w3.org/2000/svg">
<g id="SVG">
<path id="Vector" fill-rule="evenodd" clip-rule="evenodd" d="M83.666 66.0266C94.014 66.2761 104.589 65.7771 114.483 69.3156C115.073 69.5243 115.722 69.2203 115.935 68.6306C116.143 68.0408 115.84 67.3921 115.25 67.1789C105.124 63.5587 94.3088 64.0123 83.7204 63.7583C83.0944 63.7401 82.5727 64.2392 82.5591 64.8652C82.5409 65.4913 83.0399 66.0084 83.666 66.0266Z" fill="#15141A"/>
<path id="Vector_2" fill-rule="evenodd" clip-rule="evenodd" d="M82.7379 51.0019C85.9634 48.034 89.4838 45.8107 93.7391 44.7087C94.347 44.5517 94.7099 43.9325 94.5557 43.3264C94.3969 42.7203 93.7754 42.356 93.172 42.513C88.5447 43.7106 84.7113 46.1069 81.2045 49.3319C80.7418 49.7557 80.71 50.4738 81.1364 50.9347C81.5583 51.3952 82.2797 51.4256 82.7379 51.0019Z" fill="#15141A"/>
<path id="Vector_3" fill-rule="evenodd" clip-rule="evenodd" d="M73.7627 18.6013C75.2416 13.5316 78.1541 9.56573 82.6181 6.70178C83.1444 6.36381 83.2986 5.66155 82.9584 5.13485C82.6227 4.60815 81.9194 4.4548 81.3932 4.79278C76.4528 7.96386 73.2228 12.3526 71.5851 17.9657C71.4082 18.5664 71.7575 19.197 72.3563 19.3721C72.9597 19.5476 73.5903 19.2019 73.7627 18.6013Z" fill="#15141A"/>
<path id="Vector_4" fill-rule="evenodd" clip-rule="evenodd" d="M22.7959 11.7191C21.9158 12.7548 21.1264 13.8708 20.455 15.0589C20.1556 15.5879 19.6293 16.712 19.5477 17.6761C19.4569 18.7032 19.8062 19.5697 20.7045 20.0261C21.8976 20.6312 22.8503 20.5682 23.5853 20.2021C24.293 19.8505 24.8464 19.1596 25.1957 18.2332C25.8626 16.4625 25.7628 13.7565 25.4135 12.2122C26.3525 11.2432 27.3823 10.3644 28.4847 9.58326C36.696 3.76507 48.7407 5.91043 58.0089 14.6098C61.2526 17.6557 62.8132 24.0523 63.6253 30.9538C64.891 41.6996 64.1696 53.7017 64.0698 57.218C64.0471 58.0863 64.1288 58.6016 64.1742 58.7046C64.3874 59.2109 64.7639 59.3425 65.027 59.3924C65.4081 59.4604 65.712 59.3878 65.957 59.2608C66.2882 59.0866 66.5604 58.7799 66.6875 58.3067C66.7555 58.0454 66.7736 57.6816 66.7645 57.2937C66.7554 57.0247 66.701 56.7307 66.7555 56.5379C67.1093 55.3031 67.5358 54.0972 67.9531 52.8828C69.3459 48.8003 71.1469 44.9746 73.1476 41.1534C79.5033 29.0117 85.6504 16.1826 96.0709 6.93207C96.5382 6.51697 96.5835 5.79929 96.1662 5.33111C95.7533 4.86293 95.0366 4.82028 94.5648 5.23583C83.9355 14.6692 77.6206 27.7192 71.1378 40.1014C69.4366 43.3519 67.876 46.6069 66.5785 50.0116C66.7101 43.9888 66.6602 35.6519 65.5578 28.2754C64.5779 21.715 62.7134 15.9172 59.5604 12.9562C49.4075 3.42618 36.1652 1.35887 27.1737 7.73279C26.2119 8.41509 25.2956 9.16546 24.4427 9.97932C19.7382 1.48454 9.6669 -1.92019 0.766099 2.14278C0.194488 2.40273 -0.0550201 3.07597 0.203566 3.64531C0.466688 4.21465 1.13808 4.46599 1.70969 4.20604C9.73039 0.545011 18.8264 3.81225 22.7959 11.7191ZM23.4537 14.5631C23.0862 15.082 22.746 15.6201 22.4284 16.1763C22.2605 16.4748 21.9702 17.0487 21.8477 17.6103C21.8205 17.7419 21.816 17.9478 21.816 18.0431C22.129 18.1973 22.3739 18.2717 22.5735 18.1715C22.8231 18.0481 22.9501 17.7577 23.0726 17.4334C23.3811 16.6195 23.4809 15.5407 23.4537 14.5631Z" fill="#15141A"/>
</g>
</svg>
