<svg width="24" height="25" viewBox="0 0 24 25" fill="none" xmlns="http://www.w3.org/2000/svg">
<path d="M12 7.17578C11.0111 7.17578 10.0444 7.46902 9.22215 8.01843C8.3999 8.56784 7.75904 9.34873 7.3806 10.2624C7.00216 11.176 6.90315 12.1813 7.09607 13.1513C7.289 14.1212 7.7652 15.0121 8.46447 15.7113C9.16373 16.4106 10.0546 16.8868 11.0245 17.0797C11.9945 17.2727 12.9998 17.1736 13.9134 16.7952C14.827 16.4168 15.6079 15.7759 16.1573 14.9537C16.7068 14.1314 17 13.1647 17 12.1758C17 10.8497 16.4732 9.57793 15.5355 8.64025C14.5979 7.70256 13.3261 7.17578 12 7.17578ZM12 15.1758C11.4067 15.1758 10.8266 14.9999 10.3333 14.6702C9.83994 14.3406 9.45542 13.872 9.22836 13.3239C9.0013 12.7757 8.94189 12.1725 9.05764 11.5905C9.1734 11.0086 9.45912 10.474 9.87868 10.0545C10.2982 9.6349 10.8328 9.34918 11.4147 9.23342C11.9967 9.11767 12.5999 9.17708 13.1481 9.40414C13.6962 9.6312 14.1648 10.0157 14.4944 10.5091C14.8241 11.0024 15 11.5825 15 12.1758C15 12.9714 14.6839 13.7345 14.1213 14.2971C13.5587 14.8597 12.7956 15.1758 12 15.1758ZM17 6.17578C16.8022 6.17578 16.6089 6.23443 16.4444 6.34431C16.28 6.45419 16.1518 6.61037 16.0761 6.7931C16.0004 6.97582 15.9806 7.17689 16.0192 7.37087C16.0578 7.56485 16.153 7.74303 16.2929 7.88289C16.4327 8.02274 16.6109 8.11798 16.8049 8.15657C16.9989 8.19515 17.2 8.17535 17.3827 8.09966C17.5654 8.02397 17.7216 7.8958 17.8315 7.73135C17.9414 7.5669 18 7.37356 18 7.17578C18 6.91056 17.8946 6.65621 17.7071 6.46867C17.5196 6.28114 17.2652 6.17578 17 6.17578ZM21.94 8.41578C21.9234 7.5612 21.7611 6.71573 21.46 5.91578C21.1808 5.18785 20.7516 4.52677 20.2003 3.97548C19.649 3.42418 18.9879 2.995 18.26 2.71578C17.4601 2.41468 16.6146 2.25235 15.76 2.23578C14.79 2.17578 14.47 2.17578 12 2.17578C9.53 2.17578 9.21 2.17578 8.24 2.23578C7.38542 2.25235 6.53995 2.41468 5.74 2.71578C5.01207 2.995 4.35099 3.42418 3.7997 3.97548C3.2484 4.52677 2.81922 5.18785 2.54 5.91578C2.2389 6.71573 2.07657 7.5612 2.06 8.41578C2 9.39578 2 9.71578 2 12.1758C2 14.6358 2 14.9558 2.06 15.9358C2.07657 16.7904 2.2389 17.6359 2.54 18.4358C2.81922 19.1637 3.2484 19.8248 3.7997 20.3761C4.35099 20.9274 5.01207 21.3566 5.74 21.6358C6.53995 21.9369 7.38542 22.0992 8.24 22.1158C9.24 22.1158 9.53 22.1758 12 22.1758C14.47 22.1758 14.79 22.1758 15.76 22.1158C16.6146 22.0992 17.4601 21.9369 18.26 21.6358C18.9879 21.3566 19.649 20.9274 20.2003 20.3761C20.7516 19.8248 21.1808 19.1637 21.46 18.4358C21.7611 17.6359 21.9234 16.7904 21.94 15.9358C21.94 14.9358 22 14.6358 22 12.1758C22 9.71578 22 9.39578 21.94 8.41578ZM19.94 15.8458C19.9225 16.4804 19.8043 17.1082 19.59 17.7058C19.4128 18.1781 19.1327 18.6051 18.77 18.9558C18.4214 19.3186 17.9936 19.5959 17.52 19.7658C16.921 19.9889 16.289 20.1106 15.65 20.1258C14.71 20.1258 14.42 20.1758 11.99 20.1758C9.56 20.1758 9.28 20.1758 8.34 20.1758C7.70202 20.1593 7.07075 20.0412 6.47 19.8258C5.99766 19.6486 5.57067 19.3685 5.22 19.0058C4.85715 18.6572 4.57992 18.2294 4.41 17.7558C4.1878 17.16 4.06615 16.5315 4.05 15.8958C4.05 14.8958 4.05 14.6458 4.05 12.2258C4.05 9.80578 4.05 9.51578 4.05 8.55578C4.06724 7.91699 4.18884 7.28532 4.41 6.68578C4.58256 6.21641 4.85953 5.7924 5.22 5.44578C5.56858 5.08293 5.99641 4.8057 6.47 4.63578C7.06899 4.41268 7.70099 4.29101 8.34 4.27578C9.28 4.17578 9.57 4.17578 12 4.17578C14.43 4.17578 14.72 4.17578 15.66 4.17578C16.3021 4.19211 16.9373 4.31372 17.54 4.53578C18.0094 4.70834 18.4334 4.98531 18.78 5.34578C19.1428 5.69436 19.4201 6.12219 19.59 6.59578C19.8348 7.20434 19.9735 7.85036 20 8.50578C20 9.50578 20.05 9.75578 20.05 12.1758C20.05 14.5958 20 14.8858 20 15.8458H19.94Z" fill="white"/>
</svg>
