<svg width="24" height="25" viewBox="0 0 24 25" fill="none" xmlns="http://www.w3.org/2000/svg">
<path d="M20.4706 2.17592H3.53055C3.34013 2.17328 3.15105 2.20817 2.97411 2.27861C2.79718 2.34904 2.63585 2.45364 2.49935 2.58643C2.36284 2.71923 2.25383 2.87761 2.17854 3.05253C2.10325 3.22746 2.06316 3.4155 2.06055 3.60592V20.7459C2.06316 20.9363 2.10325 21.1244 2.17854 21.2993C2.25383 21.4742 2.36284 21.6326 2.49935 21.7654C2.63585 21.8982 2.79718 22.0028 2.97411 22.0732C3.15105 22.1437 3.34013 22.1785 3.53055 22.1759H20.4706C20.661 22.1785 20.8501 22.1437 21.027 22.0732C21.2039 22.0028 21.3653 21.8982 21.5018 21.7654C21.6383 21.6326 21.7473 21.4742 21.8226 21.2993C21.8979 21.1244 21.938 20.9363 21.9406 20.7459V3.60592C21.938 3.4155 21.8979 3.22746 21.8226 3.05253C21.7473 2.87761 21.6383 2.71923 21.5018 2.58643C21.3653 2.45364 21.2039 2.34904 21.027 2.27861C20.8501 2.20817 20.661 2.17328 20.4706 2.17592ZM8.09055 18.9159H5.09055V9.91592H8.09055V18.9159ZM6.59055 8.65592C6.17681 8.65592 5.78002 8.49157 5.48746 8.19901C5.19491 7.90645 5.03055 7.50966 5.03055 7.09592C5.03055 6.68218 5.19491 6.28539 5.48746 5.99284C5.78002 5.70028 6.17681 5.53592 6.59055 5.53592C6.81024 5.51101 7.03273 5.53278 7.24342 5.59981C7.45412 5.66684 7.64829 5.77761 7.81321 5.92488C7.97812 6.07216 8.11007 6.2526 8.20042 6.4544C8.29077 6.65621 8.33747 6.87482 8.33747 7.09592C8.33747 7.31703 8.29077 7.53564 8.20042 7.73744C8.11007 7.93924 7.97812 8.11969 7.81321 8.26696C7.64829 8.41423 7.45412 8.52501 7.24342 8.59204C7.03273 8.65907 6.81024 8.68084 6.59055 8.65592ZM18.9106 18.9159H15.9106V14.0859C15.9106 12.8759 15.4806 12.0859 14.3906 12.0859C14.0532 12.0884 13.7247 12.1942 13.4494 12.3891C13.174 12.584 12.965 12.8586 12.8506 13.1759C12.7723 13.4109 12.7384 13.6585 12.7506 13.9059V18.9059H9.75055C9.75055 18.9059 9.75055 10.7259 9.75055 9.90592H12.7506V11.1759C13.0231 10.703 13.4195 10.3134 13.897 10.0491C14.3745 9.78481 14.9151 9.65577 15.4606 9.67592C17.4606 9.67592 18.9106 10.9659 18.9106 13.7359V18.9159Z" fill="white"/>
</svg>
