<svg width="20" height="21" viewBox="0 0 20 21" fill="none" xmlns="http://www.w3.org/2000/svg">
<g id="vuesax/outline/location">
<g id="vuesax/outline/location_2">
<g id="location">
<path id="Vector" d="M10.0004 12.0047C8.22539 12.0047 6.77539 10.563 6.77539 8.77965C6.77539 6.99632 8.22539 5.56299 10.0004 5.56299C11.7754 5.56299 13.2254 7.00466 13.2254 8.78799C13.2254 10.5713 11.7754 12.0047 10.0004 12.0047ZM10.0004 6.81299C8.91706 6.81299 8.02539 7.69632 8.02539 8.78799C8.02539 9.87965 8.90872 10.763 10.0004 10.763C11.0921 10.763 11.9754 9.87965 11.9754 8.78799C11.9754 7.69632 11.0837 6.81299 10.0004 6.81299Z" fill="#239AC4"/>
<path id="Vector_2" d="M9.99941 19.1638C8.76608 19.1638 7.52441 18.6971 6.55775 17.7721C4.09941 15.4054 1.38275 11.6304 2.40775 7.13877C3.33275 3.06377 6.89108 1.23877 9.99941 1.23877C9.99941 1.23877 9.99942 1.23877 10.0077 1.23877C13.1161 1.23877 16.6744 3.06377 17.5994 7.1471C18.6161 11.6388 15.8994 15.4054 13.4411 17.7721C12.4744 18.6971 11.2327 19.1638 9.99941 19.1638ZM9.99941 2.48877C7.57441 2.48877 4.45775 3.78044 3.63275 7.41377C2.73275 11.3388 5.19941 14.7221 7.43275 16.8638C8.87441 18.2554 11.1327 18.2554 12.5744 16.8638C14.7994 14.7221 17.2661 11.3388 16.3827 7.41377C15.5494 3.78044 12.4244 2.48877 9.99941 2.48877Z" fill="#239AC4"/>
</g>
</g>
</g>
</svg>
