<svg width="48" height="86" viewBox="0 0 48 86" fill="none" xmlns="http://www.w3.org/2000/svg">
<path fill-rule="evenodd" clip-rule="evenodd" d="M10.3885 35.6385C11.6951 32.9207 12.6277 29.9984 13.5106 27.1599C13.6986 26.5481 13.3672 25.8909 12.7639 25.7384C12.168 25.5412 11.5298 25.8896 11.3497 26.4567C10.4964 29.2084 9.60248 32.0448 8.34946 34.6338C8.07953 35.1851 8.31407 35.8717 8.8758 36.155C9.43716 36.4382 10.1182 36.1897 10.3885 35.6385Z" fill="#15141A"/>
<path fill-rule="evenodd" clip-rule="evenodd" d="M20.2352 46.3117C25.7426 42.538 30.7479 38.0769 36.3655 34.4148C36.8867 34.0921 37.0369 33.3815 36.6953 32.8607C36.3532 32.3397 35.6534 32.1704 35.1243 32.5377C29.4928 36.1974 24.4741 40.6561 18.9528 44.4274C18.4345 44.7966 18.3022 45.5102 18.6559 46.0332C19.017 46.5115 19.7168 46.6809 20.2352 46.3117Z" fill="#15141A"/>
<path fill-rule="evenodd" clip-rule="evenodd" d="M36.777 58.1201C34.0656 57.7803 31.3543 57.4401 28.6425 57.1001C28.0268 56.9915 27.4568 57.4441 27.3765 58.0749C27.2966 58.7057 27.7419 59.2446 28.358 59.3532C31.0739 59.6939 33.7892 60.0348 36.5046 60.3754C37.1282 60.4393 37.695 59.9863 37.7717 59.3549C37.8406 58.7683 37.4001 58.1839 36.777 58.1201Z" fill="#15141A"/>
</svg>
