<svg width="24" height="25" viewBox="0 0 24 25" fill="none" xmlns="http://www.w3.org/2000/svg">
<path d="M22 5.97403C21.2483 6.30013 20.4534 6.5157 19.64 6.61403C20.4982 6.10135 21.1413 5.29482 21.45 4.34403C20.6436 4.8241 19.7608 5.16233 18.84 5.34403C18.2245 4.67661 17.405 4.23233 16.5098 4.08089C15.6147 3.92944 14.6945 4.07939 13.8938 4.50722C13.093 4.93505 12.4569 5.61656 12.0852 6.44487C11.7135 7.27318 11.6273 8.20142 11.84 9.08403C10.2094 9.00156 8.61444 8.57699 7.15865 7.8379C5.70287 7.0988 4.41885 6.06173 3.39 4.79403C3.02914 5.4242 2.83952 6.13786 2.84 6.86403C2.83872 7.53842 3.00422 8.20265 3.32176 8.7976C3.63929 9.39255 4.09902 9.89974 4.66 10.274C4.00798 10.2563 3.36989 10.0813 2.8 9.76403V9.81403C2.80489 10.7589 3.13599 11.6731 3.73731 12.402C4.33864 13.1308 5.17326 13.6296 6.1 13.814C5.74326 13.9226 5.37287 13.9798 5 13.984C4.74189 13.981 4.48442 13.9576 4.23 13.914C4.49391 14.7268 5.00462 15.4371 5.69107 15.9462C6.37753 16.4552 7.20558 16.7376 8.06 16.754C6.6172 17.8893 4.83588 18.5089 3 18.514C2.66574 18.5151 2.33174 18.4951 2 18.454C3.87443 19.6643 6.05881 20.3067 8.29 20.304C9.82969 20.32 11.3571 20.029 12.7831 19.4481C14.2091 18.8671 15.505 18.0079 16.5952 16.9205C17.6854 15.8331 18.548 14.5394 19.1326 13.1149C19.7172 11.6904 20.012 10.1638 20 8.62403C20 8.45403 20 8.27403 20 8.09403C20.7847 7.50884 21.4615 6.79146 22 5.97403Z" fill="white"/>
</svg>
