<svg width="24" height="25" viewBox="0 0 24 25" fill="none" xmlns="http://www.w3.org/2000/svg">
<path d="M23.001 9.88528C23.0505 8.45393 22.7375 7.0333 22.091 5.75528C21.6524 5.23088 21.0437 4.87699 20.371 4.75528C17.5885 4.5028 14.7946 4.39932 12.001 4.44528C9.21765 4.39724 6.43372 4.49738 3.66101 4.74528C3.11283 4.845 2.60552 5.10212 2.20101 5.48528C1.30101 6.31528 1.20101 7.73528 1.10101 8.93528C0.955915 11.0929 0.955915 13.2577 1.10101 15.4153C1.12994 16.0907 1.2305 16.7611 1.40101 17.4153C1.52158 17.9204 1.76553 18.3876 2.11101 18.7753C2.51827 19.1788 3.03739 19.4505 3.60101 19.5553C5.75692 19.8214 7.92922 19.9317 10.101 19.8853C13.601 19.9353 16.671 19.8853 20.301 19.6053C20.8785 19.5069 21.4122 19.2348 21.831 18.8253C22.111 18.5452 22.3201 18.2024 22.441 17.8253C22.7987 16.7279 22.9743 15.5794 22.961 14.4253C23.001 13.8653 23.001 10.4853 23.001 9.88528ZM9.74101 15.0253V8.83528L15.661 11.9453C14.001 12.8653 11.811 13.9053 9.74101 15.0253Z" fill="white"/>
</svg>
