<svg width="24" height="22" viewBox="0 0 24 22" fill="none" xmlns="http://www.w3.org/2000/svg">
<path d="M21.6671 8.7708C21.4004 8.55707 20.9563 8.20051 20.9007 8.03156C20.8442 7.85605 20.9903 7.29135 21.078 6.95532C21.2882 6.14418 21.5503 5.13513 20.963 4.3408C20.3784 3.55207 19.3272 3.48299 18.4824 3.42696C18.1326 3.40269 17.5462 3.3644 17.3982 3.25799C17.2483 3.15065 17.0229 2.60086 16.8882 2.27135C16.5554 1.45462 16.1764 0.528638 15.2515 0.23367C14.3314 -0.0640765 13.4903 0.4633 12.7502 0.927194C12.424 1.13066 11.9328 1.43873 11.7273 1.43873C11.5303 1.43873 11.0447 1.12603 10.7223 0.91881C10.0105 0.460476 9.12054 -0.107046 8.18245 0.208479C7.2594 0.519329 6.8842 1.43966 6.55138 2.24987C6.41753 2.57656 6.19499 3.12167 6.04229 3.23275C5.89332 3.34195 5.29653 3.38116 4.94014 3.4045C4.0492 3.46423 3.03947 3.53147 2.4719 4.32673C1.91472 5.108 2.16453 6.0713 2.38514 6.92166C2.4719 7.25955 2.61895 7.82522 2.56615 7.99415C2.5096 8.15561 2.07024 8.51315 1.80814 8.72688C1.14526 9.2684 0.320312 9.94136 0.320312 10.9494C0.320312 11.951 1.12926 12.6166 1.77881 13.1505C2.0607 13.3819 2.48589 13.732 2.54342 13.9056C2.59996 14.0774 2.45291 14.6355 2.36429 14.9688C2.14933 15.7874 1.88063 16.8067 2.49062 17.6075C3.08554 18.3861 4.13204 18.4551 4.97395 18.5112C5.32375 18.5354 5.90923 18.5727 6.05819 18.6801C6.20716 18.7875 6.43157 19.3363 6.56636 19.6658C6.90012 20.4825 7.27817 21.4086 8.20396 21.7044C8.38974 21.7651 8.57356 21.7913 8.75274 21.7913C9.46171 21.7913 10.116 21.3805 10.7062 21.0127C11.0314 20.8093 11.5217 20.5012 11.7272 20.5012C11.9281 20.5012 12.4108 20.8055 12.7294 21.0072C13.4365 21.4524 14.319 22.0106 15.2552 21.6932C16.1772 21.3824 16.5525 20.463 16.8853 19.6509C17.0191 19.3252 17.2417 18.7791 17.3944 18.668C17.5443 18.5588 18.1373 18.5196 18.4918 18.4963C19.3761 18.4365 20.3793 18.3703 20.9554 17.5871C21.5352 16.8002 21.2863 15.8267 21.0666 14.9689C20.9808 14.6337 20.8376 14.0747 20.8894 13.9066C20.946 13.7452 21.3853 13.3876 21.6465 13.1738C22.3102 12.6324 23.1351 11.9585 23.1351 10.9504C23.1351 9.95073 22.3205 9.29635 21.6671 8.7708ZM20.4482 11.7345C19.8966 12.1835 19.3262 12.6492 19.1018 13.3166C18.8727 13.9962 19.0594 14.7242 19.2395 15.4281C19.3272 15.7715 19.4742 16.3456 19.4544 16.4641C19.3111 16.5705 18.72 16.6107 18.3664 16.6331C17.6659 16.6798 16.8721 16.7321 16.281 17.1614C15.6955 17.5861 15.4117 18.2797 15.1373 18.9499C15.0035 19.2804 14.7772 19.8338 14.6839 19.9179C14.5123 19.9179 14.0324 19.6126 13.7449 19.4316C13.1518 19.0582 12.4796 18.6335 11.7282 18.6335C10.9758 18.6335 10.298 19.0591 9.69833 19.4344C9.40793 19.6155 8.92148 19.9216 8.81776 19.944C8.67166 19.8404 8.44914 19.2934 8.31526 18.9667C8.0381 18.2882 7.75148 17.5872 7.16035 17.1662C6.573 16.747 5.82439 16.6976 5.09939 16.65C4.75904 16.6276 4.12455 16.5856 4.0095 16.5081C3.95103 16.3429 4.09906 15.7782 4.18862 15.4422C4.36304 14.7766 4.562 14.0224 4.33759 13.3335C4.11225 12.6456 3.51358 12.1518 2.98465 11.7168C2.72634 11.504 2.24456 11.1073 2.204 10.9635C2.24642 10.788 2.7414 10.3839 3.00725 10.1683C3.55876 9.71835 4.12918 9.2526 4.35359 8.58518C4.58459 7.90097 4.39414 7.1673 4.21122 6.4579C4.12259 6.11532 3.97362 5.5422 3.98495 5.43301C4.12918 5.33035 4.7156 5.29113 5.06633 5.26779C5.80264 5.21926 6.56537 5.16791 7.15651 4.73948C7.74199 4.31477 8.02579 3.62218 8.30019 2.95199C8.43398 2.62063 8.66123 2.06802 8.74801 1.98495C8.92238 1.98772 9.40695 2.2995 9.69646 2.48528C10.2942 2.86985 10.973 3.30577 11.7282 3.30577C12.4796 3.30577 13.1593 2.88013 13.7571 2.50583C14.0475 2.32381 14.5339 2.01861 14.6377 1.9962C14.7829 2.09983 15.0064 2.64679 15.1402 2.97348C15.4174 3.65116 15.7039 4.35214 16.2951 4.7731C16.8825 5.19315 17.632 5.2426 18.3579 5.2902C18.7162 5.31447 19.3168 5.35461 19.4289 5.4218C19.4865 5.58609 19.3404 6.15362 19.2517 6.49152C19.0791 7.15984 18.8831 7.91686 19.1084 8.60759C19.3356 9.30303 19.9437 9.79119 20.4802 10.2215C20.7253 10.4193 21.177 10.7806 21.2467 10.9543C21.1798 11.1362 20.7055 11.5235 20.4482 11.7345Z" fill="#239AC4"/>
<path d="M15.9433 7.43684C15.5417 7.10455 14.9486 7.15867 14.6158 7.55353L10.412 12.5296L8.62345 10.7599C8.25474 10.3949 7.65892 10.3949 7.29031 10.7599C6.92166 11.1249 6.92166 11.7148 7.29031 12.0797L9.80762 14.572C9.98386 14.7485 10.2243 14.8455 10.4742 14.8455C10.4873 14.8455 10.5015 14.8455 10.5147 14.8436C10.7806 14.8324 11.0267 14.7111 11.1964 14.5104L16.0612 8.75109C16.3949 8.35534 16.3431 7.76728 15.9433 7.43684Z" fill="#239AC4"/>
</svg>
