<svg width="81" height="22" viewBox="0 0 81 22" fill="none" xmlns="http://www.w3.org/2000/svg">
<g id="Group 1000003455">
<path id="Vector" d="M24.0967 0.290039H20.0938V21.1941H24.0967V0.290039Z" fill="#17313B"/>
<path id="Vector_2" d="M36.9958 14.9683C36.9958 18.2233 33.9137 18.4819 33.0506 18.4819C30.8893 18.4819 30.3243 16.5777 30.3243 15.4311V7.40723H27.2109V15.413C27.2109 17.4326 27.8468 19.0996 29.0295 20.2083C30.1942 21.2362 31.7064 21.7814 33.2598 21.7287C34.5842 21.6958 35.8757 21.3054 36.9958 20.5987V21.195H40.5539V7.40723H36.9958V14.9683Z" fill="#17313B"/>
<path id="Vector_3" d="M48.1174 2.5127H44.1145V7.40513H41.8906V10.0737H44.1145V21.1929H48.1174V10.0737H50.786V7.40513H48.1174V2.5127Z" fill="#17313B"/>
<path id="Vector_4" d="M62.3075 17.362C61.4657 18.0489 60.4098 18.4162 59.3226 18.3981C56.7875 18.3981 54.9277 16.6586 54.9277 14.27C54.9277 11.8814 56.7067 10.2177 59.3226 10.2177C60.4131 10.1979 61.4756 10.5587 62.3289 11.2357L62.8808 11.6805L65.3352 9.38581L64.7208 8.87021C63.197 7.61334 61.2747 6.9363 59.2996 6.96266C54.7498 6.96266 51.4453 10.0365 51.4453 14.2568C51.4453 18.4772 54.8305 21.64 59.2996 21.64C61.2845 21.6713 63.2152 20.9876 64.7389 19.7143L65.3303 19.1937L62.8396 16.8991L62.3059 17.362H62.3075Z" fill="#17313B"/>
<path id="Vector_5" d="M78.4234 8.70437C77.2374 7.67811 75.7087 7.13615 74.1405 7.18722C72.793 7.17075 71.4735 7.56445 70.355 8.31726V0.290039H66.7969V21.1941H70.355V13.9444C70.355 10.6894 73.2147 10.4258 74.0779 10.4258C76.2391 10.4258 76.5818 12.3333 76.5818 13.4815V21.1941H80.1399V13.4996C80.1399 11.48 79.6243 9.81629 78.4234 8.70437Z" fill="#17313B"/>
<path id="Vector_6" d="M59.1838 16.7695C60.6358 16.7695 61.8128 15.6662 61.8128 14.3052C61.8128 12.9441 60.6358 11.8408 59.1838 11.8408C57.7318 11.8408 56.5547 12.9441 56.5547 14.3052C56.5547 15.6662 57.7318 16.7695 59.1838 16.7695Z" fill="#FF3D2E"/>
<path id="Vector_7" d="M15.7052 16.3423C14.2918 17.6799 12.4123 18.4179 10.4652 18.3965C6.40959 18.3965 3.46095 15.4166 3.46095 11.3247C3.46095 7.23285 6.40959 4.2348 10.4652 4.2348C12.4008 4.22492 14.2688 4.95466 15.6871 6.27249L16.2389 6.79303L18.672 4.51648L18.1383 3.99594C16.0676 2.03732 13.315 0.963288 10.4652 0.997881C4.49215 0.997881 0 5.44555 0 11.3428C0 17.2401 4.51027 21.64 10.4652 21.64C13.3249 21.673 16.0857 20.589 18.1597 18.6205L18.6934 18.1049L16.2785 15.7921L15.7052 16.344V16.3423Z" fill="#17313B"/>
</g>
</svg>
