<svg width="25" height="25" viewBox="0 0 25 25" fill="none" xmlns="http://www.w3.org/2000/svg">
<rect width="25" height="25" fill="#BABABA"/>
<g id="Infrolabs - Home Page" clip-path="url(#clip0_4239_6838)">
<rect width="1920" height="6414.18" transform="translate(-360 -2093)" fill="white"/>
<g id="In-house vs freelancers?">
<g id="Frame 1437252994">
<g id="Frame 1261155405">
<g id="Frame 1437252995">
<g id="Background">
<rect x="-20" y="-20" width="40" height="40" rx="20" fill="#239AC4"/>
<g id="SVG">
<g id="Group-67754 2" clip-path="url(#clip1_4239_6838)">
<g id="Group 67754">
<g id="Path 13879">
<path d="M24.4735 11.9965C24.5066 12.0612 24.5216 12.1337 24.5168 12.2062C24.5121 12.2787 24.4878 12.3486 24.4466 12.4085C24.4053 12.4684 24.3487 12.516 24.2826 12.5463C24.2166 12.5766 24.1435 12.5885 24.0712 12.5807C23.7189 12.5828 23.3661 12.5909 23.0142 12.5768C22.8553 12.5704 22.822 12.6379 22.8092 12.772C22.772 13.1563 22.7409 13.5454 22.6811 13.928C22.507 14.9816 22.1619 15.9997 21.6595 16.9421C21.1247 17.9646 20.4201 18.8887 19.5758 19.6752C18.3078 20.8627 16.76 21.7102 15.0764 22.1388C14.4658 22.2937 13.8419 22.3903 13.213 22.4275C13.1353 22.4326 13.0584 22.4489 12.9649 22.4621C12.9649 22.7576 12.9649 23.0454 12.9649 23.3333C12.9649 23.4614 12.9649 23.5857 12.9649 23.7121C12.9686 23.7673 12.9606 23.8226 12.9413 23.8745C12.9221 23.9263 12.892 23.9735 12.8532 24.013C12.8144 24.0524 12.7677 24.0831 12.7161 24.1032C12.6645 24.1232 12.6093 24.1321 12.5541 24.1293C12.4987 24.1307 12.4437 24.1207 12.3924 24.0998C12.3412 24.0789 12.2948 24.0476 12.2563 24.0078C12.2178 23.9681 12.1879 23.9208 12.1686 23.8689C12.1493 23.8171 12.1409 23.7618 12.1441 23.7065C12.1406 23.3491 12.1441 22.9912 12.1441 22.6338V22.4587C11.9305 22.4365 11.7221 22.4126 11.5154 22.3946C10.3894 22.2887 9.29007 21.9902 8.26528 21.5119C7.03133 20.9515 5.92337 20.1475 5.00791 19.1482C3.8883 17.9402 3.0773 16.4795 2.64399 14.8906C2.44595 14.1772 2.32961 13.4437 2.2972 12.7041C2.29208 12.5884 2.23442 12.5807 2.14601 12.5811C1.77787 12.5834 1.40972 12.5834 1.04157 12.5811C0.985024 12.5865 0.927974 12.5799 0.874111 12.5619C0.820249 12.5438 0.770771 12.5147 0.728872 12.4764C0.686973 12.438 0.653584 12.3913 0.630866 12.3392C0.608147 12.2872 0.596604 12.2309 0.596978 12.1741C0.598269 12.1175 0.610917 12.0617 0.634176 12.0101C0.657435 11.9585 0.690831 11.9121 0.732378 11.8736C0.773924 11.8351 0.822773 11.8054 0.876034 11.7861C0.929294 11.7669 0.98588 11.7586 1.04243 11.7616C1.45157 11.7586 1.86114 11.7616 2.27712 11.7616C2.39035 9.18192 3.46618 6.7383 5.29245 4.91267C7.11871 3.08704 9.56283 2.01193 12.1428 1.89939V1.72858C12.1428 1.37114 12.1406 1.01328 12.1428 0.655838C12.1391 0.599103 12.1471 0.542211 12.1665 0.488743C12.1858 0.435275 12.216 0.386385 12.2551 0.345152C12.2943 0.303919 12.3416 0.271232 12.3939 0.249149C12.4463 0.227065 12.5027 0.216065 12.5596 0.216835C12.6151 0.216577 12.6701 0.227782 12.7211 0.249755C12.772 0.271727 12.8179 0.303988 12.8559 0.34452C12.8938 0.385052 12.9229 0.432982 12.9415 0.485302C12.96 0.537623 12.9676 0.593204 12.9636 0.648573C12.967 1.02181 12.9679 1.39548 12.9636 1.76872C12.9636 1.87889 13.0008 1.90964 13.1088 1.91562C15.0948 2.0118 17.0077 2.69402 18.6063 3.87619C20.326 5.12297 21.6147 6.8744 22.2933 8.88715C22.5487 9.62699 22.7119 10.3955 22.7793 11.1753C22.7964 11.367 22.8169 11.5596 22.837 11.7633C23.2529 11.7633 23.6514 11.7633 24.0503 11.7633C24.137 11.7549 24.2242 11.773 24.3005 11.8152C24.3767 11.8573 24.4384 11.9216 24.4774 11.9995M9.40772 18.6148C10.2611 19.0368 11.192 19.2791 12.1428 19.3267C12.1428 19.2195 12.1368 19.1354 12.1428 19.0521C12.1475 18.9447 12.1943 18.8435 12.273 18.7703C12.3517 18.6971 12.456 18.6577 12.5635 18.6608C12.6709 18.6638 12.7729 18.7089 12.8474 18.7865C12.9218 18.864 12.9628 18.9677 12.9615 19.0752C12.9649 19.1568 12.9615 19.2383 12.9615 19.3353C13.9315 19.2796 14.88 19.0267 15.7489 18.592C16.6178 18.1573 17.389 17.55 18.0152 16.8072C19.0333 15.6242 19.6315 14.1378 19.7167 12.5794C19.624 12.5794 19.5565 12.5794 19.489 12.5794C19.4338 12.5833 19.3784 12.576 19.3261 12.5579C19.2738 12.5397 19.2257 12.5111 19.1848 12.4738C19.1439 12.4365 19.111 12.3913 19.0881 12.3408C19.0652 12.2904 19.0528 12.2359 19.0517 12.1805C19.0514 12.1238 19.0627 12.0676 19.0847 12.0154C19.1068 11.9631 19.1392 11.9159 19.1801 11.8765C19.2209 11.8372 19.2693 11.8065 19.3223 11.7864C19.3754 11.7662 19.4319 11.7571 19.4886 11.7595C19.5599 11.7595 19.6317 11.7595 19.7022 11.7595C19.6013 10.005 18.8585 8.34898 17.6153 7.10683C16.3721 5.86467 14.7153 5.1232 12.9606 5.02367C12.9606 5.09541 12.9606 5.16715 12.9606 5.23719C12.9641 5.29234 12.9562 5.3476 12.9376 5.39961C12.9189 5.45162 12.8898 5.49929 12.8522 5.5397C12.8145 5.5801 12.7689 5.6124 12.7183 5.63462C12.6677 5.65684 12.6132 5.66852 12.5579 5.66893C12.5024 5.66987 12.4474 5.6596 12.396 5.63874C12.3446 5.61788 12.2979 5.58687 12.2588 5.54755C12.2197 5.50823 12.1889 5.46142 12.1683 5.40993C12.1477 5.35843 12.1377 5.30331 12.1389 5.24786C12.1359 5.17099 12.1389 5.0937 12.1389 5.01598C8.09999 5.26324 5.46958 8.65355 5.41235 11.7445C5.91418 11.8116 6.04444 11.8876 6.04615 12.1464C6.04914 12.5794 5.72882 12.5862 5.42046 12.5849C5.48292 13.8537 5.88535 15.0823 6.58563 16.1422C7.2859 17.202 8.25826 18.0541 9.40089 18.6093M7.69811 20.2803C9.0386 21.0919 10.5625 21.5516 12.1283 21.6165V20.1607L11.9963 20.1484C11.389 20.1038 10.7886 19.9921 10.2059 19.8153C8.81164 19.3867 7.56172 18.5838 6.59239 17.4938C5.948 16.7774 5.44126 15.9483 5.09759 15.0481C4.80764 14.3095 4.63668 13.5296 4.59107 12.7374C4.58551 12.6264 4.5505 12.5717 4.42024 12.5751C4.03159 12.5845 3.64209 12.5781 3.25301 12.579C3.2103 12.579 3.16375 12.5858 3.08218 12.5926C3.15735 13.1081 3.20561 13.6099 3.3064 14.101C3.65073 15.7998 4.46452 17.368 5.65536 18.6277C6.25715 19.2714 6.94653 19.8273 7.70323 20.279M18.341 17.6834C16.9323 19.1581 15.0157 20.0423 12.9794 20.1569V21.5943C18.0263 21.4607 21.9482 17.0578 21.9785 12.5884H20.5478C20.4422 14.4952 19.6597 16.3019 18.341 17.6834ZM19.4293 5.68345C17.7421 3.89878 15.4278 2.83882 12.9743 2.72701V4.18452C14.9433 4.29817 16.8018 5.13184 18.196 6.52682C19.5902 7.92181 20.4226 9.78071 20.535 11.7496H21.9751C21.8872 9.48627 20.9811 7.33164 19.425 5.68559M7.36071 4.28231C6.10711 5.09554 5.0682 6.19914 4.33214 7.49948C3.59608 8.79982 3.18458 10.2585 3.13258 11.7518H4.56203C4.67571 9.78191 5.50963 7.92258 6.90513 6.52752C8.30063 5.13245 10.1603 4.29903 12.1304 4.1858V2.73384C10.4301 2.80769 8.78198 3.34298 7.36285 4.28231H7.36071Z" fill="#15141A"/>
<path d="M24.4735 11.9965C24.5066 12.0612 24.5216 12.1337 24.5168 12.2062C24.5121 12.2787 24.4878 12.3486 24.4466 12.4085C24.4053 12.4684 24.3487 12.516 24.2826 12.5463C24.2166 12.5766 24.1435 12.5885 24.0712 12.5807C23.7189 12.5828 23.3661 12.5909 23.0142 12.5768C22.8553 12.5704 22.822 12.6379 22.8092 12.772C22.772 13.1563 22.7409 13.5454 22.6811 13.928C22.507 14.9816 22.1619 15.9997 21.6595 16.9421C21.1247 17.9646 20.4201 18.8887 19.5757 19.6752C18.3078 20.8627 16.76 21.7102 15.0764 22.1388C14.4658 22.2937 13.8419 22.3903 13.213 22.4275C13.1353 22.4326 13.0584 22.4489 12.9649 22.4621C12.9649 22.7576 12.9649 23.0454 12.9649 23.3333C12.9649 23.4614 12.9649 23.5857 12.9649 23.7121C12.9686 23.7673 12.9606 23.8226 12.9413 23.8745C12.9221 23.9263 12.892 23.9735 12.8532 24.013C12.8144 24.0524 12.7677 24.0831 12.7161 24.1032C12.6645 24.1232 12.6093 24.1321 12.5541 24.1293C12.4987 24.1307 12.4437 24.1207 12.3924 24.0998C12.3412 24.0789 12.2948 24.0476 12.2563 24.0078C12.2178 23.9681 12.1879 23.9208 12.1686 23.8689C12.1493 23.8171 12.1409 23.7618 12.1441 23.7065C12.1406 23.3491 12.1441 22.9912 12.1441 22.6338V22.4587C11.9305 22.4365 11.7221 22.4126 11.5154 22.3946C10.3894 22.2887 9.29007 21.9902 8.26528 21.5119C7.03133 20.9515 5.92337 20.1475 5.00791 19.1482C3.8883 17.9402 3.0773 16.4795 2.64399 14.8906C2.44595 14.1772 2.32961 13.4437 2.2972 12.7041C2.29208 12.5884 2.23442 12.5807 2.14601 12.5811C1.77787 12.5834 1.40972 12.5834 1.04157 12.5811C0.985024 12.5865 0.927974 12.5799 0.874111 12.5619C0.820249 12.5438 0.770771 12.5147 0.728872 12.4764C0.686973 12.438 0.653584 12.3913 0.630866 12.3392C0.608147 12.2872 0.596604 12.2309 0.596978 12.1741C0.598269 12.1175 0.610917 12.0617 0.634176 12.0101C0.657435 11.9585 0.690831 11.9121 0.732378 11.8736C0.773924 11.8351 0.822773 11.8054 0.876034 11.7861C0.929294 11.7669 0.98588 11.7586 1.04243 11.7616C1.45157 11.7586 1.86114 11.7616 2.27712 11.7616C2.39035 9.18192 3.46618 6.7383 5.29245 4.91267C7.11871 3.08704 9.56283 2.01193 12.1428 1.89939V1.72858C12.1428 1.37114 12.1406 1.01328 12.1428 0.655838C12.1391 0.599103 12.1471 0.542211 12.1665 0.488743C12.1858 0.435275 12.216 0.386385 12.2551 0.345152C12.2943 0.303919 12.3416 0.271232 12.3939 0.249149C12.4463 0.227065 12.5027 0.216065 12.5596 0.216835C12.6151 0.216577 12.6701 0.227782 12.7211 0.249755C12.772 0.271727 12.8179 0.303988 12.8559 0.34452C12.8938 0.385052 12.9229 0.432982 12.9415 0.485302C12.96 0.537623 12.9676 0.593204 12.9636 0.648573C12.967 1.02181 12.9679 1.39548 12.9636 1.76872C12.9636 1.87889 13.0008 1.90964 13.1088 1.91562C15.0948 2.0118 17.0077 2.69402 18.6063 3.87619C20.326 5.12297 21.6147 6.8744 22.2933 8.88715C22.5487 9.62699 22.7119 10.3955 22.7793 11.1753C22.7964 11.367 22.8169 11.5596 22.837 11.7633C23.2529 11.7633 23.6514 11.7633 24.0503 11.7633C24.137 11.7549 24.2242 11.773 24.3005 11.8152C24.3767 11.8573 24.4384 11.9216 24.4774 11.9995M9.40772 18.6148C10.2611 19.0368 11.192 19.2791 12.1428 19.3267C12.1428 19.2195 12.1368 19.1354 12.1428 19.0521C12.1475 18.9447 12.1943 18.8435 12.273 18.7703C12.3517 18.6971 12.456 18.6577 12.5635 18.6608C12.6709 18.6638 12.7729 18.7089 12.8474 18.7865C12.9218 18.864 12.9628 18.9677 12.9615 19.0752C12.9649 19.1568 12.9615 19.2383 12.9615 19.3353C13.9315 19.2796 14.88 19.0267 15.7489 18.592C16.6178 18.1573 17.389 17.55 18.0152 16.8072C19.0333 15.6242 19.6315 14.1378 19.7167 12.5794C19.624 12.5794 19.5565 12.5794 19.4891 12.5794C19.4338 12.5833 19.3784 12.576 19.3261 12.5579C19.2738 12.5397 19.2257 12.5111 19.1848 12.4738C19.1439 12.4365 19.111 12.3913 19.0881 12.3408C19.0652 12.2904 19.0528 12.2359 19.0517 12.1805C19.0514 12.1238 19.0627 12.0676 19.0847 12.0154C19.1068 11.9631 19.1392 11.9159 19.1801 11.8765C19.2209 11.8372 19.2693 11.8065 19.3223 11.7864C19.3754 11.7662 19.4319 11.7571 19.4886 11.7595C19.5599 11.7595 19.6317 11.7595 19.7022 11.7595C19.6013 10.005 18.8585 8.34898 17.6153 7.10683C16.3721 5.86467 14.7153 5.1232 12.9606 5.02367C12.9606 5.09541 12.9606 5.16715 12.9606 5.23719C12.9641 5.29234 12.9562 5.3476 12.9376 5.39961C12.9189 5.45162 12.8898 5.49929 12.8522 5.5397C12.8145 5.5801 12.7689 5.6124 12.7183 5.63462C12.6677 5.65684 12.6132 5.66852 12.5579 5.66893C12.5024 5.66987 12.4474 5.65959 12.396 5.63874C12.3446 5.61788 12.2979 5.58687 12.2588 5.54755C12.2197 5.50823 12.1889 5.46142 12.1683 5.40993C12.1477 5.35843 12.1377 5.30331 12.1389 5.24786C12.1359 5.17099 12.1389 5.0937 12.1389 5.01598C8.09999 5.26324 5.46958 8.65355 5.41235 11.7445C5.91418 11.8116 6.04444 11.8876 6.04615 12.1464C6.04914 12.5794 5.72882 12.5862 5.42046 12.5849C5.48292 13.8537 5.88535 15.0823 6.58563 16.1422C7.2859 17.202 8.25826 18.0541 9.40089 18.6093M7.69811 20.2803C9.0386 21.0919 10.5625 21.5516 12.1283 21.6165V20.1607L11.9963 20.1484C11.389 20.1038 10.7886 19.9921 10.2059 19.8153C8.81164 19.3867 7.56172 18.5838 6.59239 17.4938C5.948 16.7774 5.44126 15.9483 5.09759 15.0481C4.80764 14.3095 4.63668 13.5296 4.59107 12.7374C4.58551 12.6264 4.5505 12.5717 4.42024 12.5751C4.03159 12.5845 3.64209 12.5781 3.25301 12.579C3.2103 12.579 3.16375 12.5858 3.08218 12.5926C3.15735 13.1081 3.20561 13.6099 3.3064 14.101C3.65073 15.7998 4.46452 17.368 5.65536 18.6277C6.25715 19.2714 6.94653 19.8273 7.70323 20.279M19.4293 5.68345C17.7421 3.89878 15.4278 2.83882 12.9743 2.72701V4.18452C14.9433 4.29817 16.8018 5.13184 18.196 6.52682C19.5902 7.92181 20.4226 9.78071 20.535 11.7496H21.9751C21.8872 9.48627 20.9811 7.33164 19.425 5.68559M18.341 17.6834C16.9323 19.1581 15.0157 20.0423 12.9794 20.1569V21.5943C18.0263 21.4607 21.9482 17.0578 21.9785 12.5884H20.5478C20.4422 14.4952 19.6597 16.3019 18.341 17.6834ZM7.36071 4.28231C6.10711 5.09554 5.0682 6.19914 4.33214 7.49948C3.59608 8.79982 3.18458 10.2585 3.13258 11.7518H4.56203C4.67571 9.78191 5.50963 7.92258 6.90513 6.52752C8.30063 5.13245 10.1603 4.29903 12.1304 4.1858V2.73384C10.4301 2.80769 8.78198 3.34298 7.36285 4.28231H7.36071Z" stroke="#15141A" stroke-width="0.141176"/>
</g>
<path id="Path 13885" d="M15.2186 7.50943C15.9037 7.89256 16.4944 8.42405 16.9474 9.06498C17.4005 9.70591 17.7045 10.44 17.8371 11.2136C18.021 12.2172 17.9148 13.2525 17.5309 14.1979C17.1471 15.1432 16.5016 15.9596 15.6701 16.551C14.8386 17.1424 13.8556 17.4844 12.8366 17.5369C11.8175 17.5894 10.8046 17.3501 9.9168 16.8472C8.98874 16.3251 8.23717 15.5385 7.75787 14.5877C7.3763 13.826 7.18119 12.9845 7.18862 12.1326C7.19605 11.2807 7.40579 10.4428 7.80059 9.6878C8.44683 8.44927 9.55026 7.51124 10.8767 7.07274C12.2032 6.63423 13.6484 6.72976 14.9056 7.33904C15.0093 7.38858 15.1089 7.44794 15.2199 7.50986" stroke="#15141A" stroke-width="0.988235"/>
<path id="Ellipse 150" d="M12.5527 13.0267C13.7321 13.0267 14.6881 12.0707 14.6881 10.8915C14.6881 9.7122 13.7321 8.75623 12.5527 8.75623C11.3733 8.75623 10.4173 9.7122 10.4173 10.8915C10.4173 12.0707 11.3733 13.0267 12.5527 13.0267Z" stroke="#15141A" stroke-width="0.847059"/>
<path id="Path 13886" d="M8.48461 15.3621C8.68979 15.0104 8.94072 14.6874 9.23084 14.4016C10.1119 13.5206 11.3068 13.0257 12.5528 13.0257C13.7987 13.0257 14.9937 13.5206 15.8747 14.4016C16.2247 14.7571 16.5177 15.1644 16.7435 15.6091" stroke="#15141A" stroke-width="0.847059"/>
</g>
</g>
</g>
</g>
</g>
</g>
</g>
</g>
</g>
<defs>
<clipPath id="clip0_4239_6838">
<rect width="1920" height="6414.18" fill="white" transform="translate(-360 -2093)"/>
</clipPath>
<clipPath id="clip1_4239_6838">
<rect width="24" height="24" fill="white" transform="translate(0.551468 0.172607)"/>
</clipPath>
</defs>
</svg>
